<svg width="635" height="585" viewBox="0 0 635 585" fill="none" xmlns="http://www.w3.org/2000/svg">
<path fill-rule="evenodd" clip-rule="evenodd" d="M304.252 0.269874L307.084 0.312355C344.529 1.05651 382.646 12.0716 416.252 28.2699L418.887 29.5379C443.28 41.4302 465.891 56.5223 485.791 74.9925C487.992 77.0289 490.229 79.0025 492.502 80.9574C507.423 93.9641 520.872 110.415 531.252 127.27L542.252 144.27L547.194 154.157C549.021 157.81 550.851 161.461 552.686 165.11C566.672 193.424 575.271 223.994 579.252 255.27L579.514 257.195C580.307 263.507 580.413 269.753 580.42 276.11L580.43 279.507C580.435 281.872 580.438 284.238 580.437 286.604C580.44 290.165 580.458 293.726 580.477 297.287C580.504 308.871 580.257 320.213 578.683 331.698C577.866 338.473 578.338 342.162 582.002 347.895C590.629 362.443 592.619 377.333 589.557 394.071C588.661 396.971 587.617 399.562 586.252 402.27L584.967 404.852C581.294 411.512 575.701 420.787 568.252 423.27L569.252 425.27C579.766 425.971 589.185 423.195 597.287 416.309C606.73 406.509 609.581 393.157 611.682 380.175C612.352 376.369 612.844 373.827 615.154 370.672C616.038 370.082 616.549 369.74 617.111 369.542C617.884 369.27 618.752 369.27 620.815 369.27C624.662 370.389 625.332 370.888 627.252 374.27C629.353 388.731 624.845 406.072 616.502 417.957C605.482 432.224 593.123 438.87 576.252 444.27L579.365 445.153C598.964 450.875 615.422 461.292 625.838 479.368C628.641 485.12 630.481 491.14 632.252 497.27L633.006 499.821C634.371 505.349 634.48 510.915 634.565 516.582L634.619 518.939C634.612 523.538 634.236 526.545 631.252 530.27C627.982 532.45 627.047 532.902 623.252 532.27C620.733 530.094 618.747 528.26 617.252 525.27C617.159 523.779 617.12 522.284 617.111 520.789C616.799 502.579 613.59 487.638 601.19 473.52C595.675 468.308 586.743 463.72 579.252 462.27L579.908 464.008C584.171 477.014 584.194 492.813 578.252 505.27C570.019 519.256 558.466 531.463 542.287 535.926C534.157 537.299 527.851 533.66 521.252 529.27C509.744 520.209 498.977 508.813 495.252 494.27C494.945 490.683 494.927 487.118 494.94 483.52L494.891 480.676C494.886 474.074 496.017 468.476 498.252 462.27C484.346 467.73 474.026 473.25 467.252 487.27C463.964 494.916 461.132 501.998 461.147 510.395L461.102 513.286C461.077 515.275 461.072 517.265 461.086 519.254C460.982 523.934 460.947 525.507 460.368 526.845C460.075 527.522 459.643 528.139 458.993 529.068C456.104 531.631 454.444 532.267 450.565 532.332C448.669 531.724 447.858 531.464 447.16 531.025C446.638 530.697 446.179 530.268 445.377 529.52C439.131 517.027 444.437 499.627 448.572 487.137C456.271 465.575 478.607 450.066 500.252 444.27C497.015 442.534 493.656 441.301 490.226 440.042C489.922 439.931 489.619 439.819 489.315 439.707C472.554 433.18 460.454 421.907 452.983 405.582C449.26 396.786 446.671 386.847 447.252 377.27C448.033 376.051 448.424 375.442 448.924 374.942C449.424 374.442 450.033 374.051 451.252 373.27C452.942 372.963 453.801 372.806 454.661 372.801C455.551 372.796 456.441 372.952 458.252 373.27C463.392 378.067 464.364 382.706 465.627 389.457C468.213 401.557 472.722 411.143 483.252 418.27C488.737 421.429 491.451 422.992 494.359 423.99C497.208 424.969 500.243 425.406 506.252 426.27C506.252 421.727 504.683 419.707 502.171 416.472C501.994 416.244 501.813 416.011 501.627 415.77C493.348 404.607 487.833 393.612 487.94 379.52L487.957 377.128C488.525 349.545 506.882 323.508 523.826 303.055C524.576 302.181 524.948 301.747 525.252 301.27C525.552 300.8 525.787 300.287 526.252 299.27C522.105 299.384 517.963 299.542 513.819 299.74C512.412 299.801 511.005 299.85 509.598 299.887C504.729 299.906 502.334 299.915 500.104 300.525C497.946 301.115 495.942 302.268 491.998 304.535C491.214 305.491 490.834 305.953 490.482 306.436C490.152 306.888 489.845 307.359 489.252 308.27L487.291 311L485.877 313.457L484.416 315.938C482.606 319.564 482.128 322.61 482.26 326.641L482.311 329.131C482.355 330.845 482.407 332.559 482.467 334.272C482.55 339.097 482.558 342.459 479.252 346.27C474.261 350.782 469.76 350.753 463.551 350.713C463.268 350.711 462.981 350.709 462.69 350.707C448.557 351.002 436.39 354.837 426.229 365.172C422.462 369.684 421.222 374.94 419.91 380.5C419.796 380.984 419.681 381.469 419.565 381.957L418.711 385.315C418.151 387.53 417.6 389.747 417.059 391.967C416.01 396.261 414.901 400.54 413.792 404.82C413.487 406.006 413.326 406.634 413.252 407.272C413.168 407.989 413.195 408.719 413.252 410.27C413.953 409.96 406.252 437.27 406.252 437.27C405.462 439.875 404.794 442.402 404.201 445.051L403.658 447.36C403.276 448.987 402.897 450.615 402.522 452.244C401.548 456.465 400.539 460.678 399.529 464.891L398.932 467.386C395.738 480.655 392.154 493.917 386.252 506.27L384.584 509.766C376.376 526.3 364.417 540.443 351.252 553.27C373.453 551.042 395.024 540.695 414.15 529.724C419.502 526.762 423.116 525.493 429.252 526.27C432.349 527.81 434.69 530.146 436.252 533.27C436.724 537.423 436.279 540.21 433.848 543.66C430.746 546.79 426.695 548.68 422.714 550.537C422.014 550.864 421.317 551.189 420.627 551.52L417.125 553.228C387.854 567.247 357.324 576.483 325.252 581.27L322.744 581.668C255.107 592.154 179.165 571.987 124.193 531.982C122.538 530.755 120.893 529.516 119.252 528.27L117.545 526.979C98.0608 512.164 79.1599 495.781 64.252 476.27C63.24 474.985 62.2269 473.701 61.213 472.418C20.9115 421.06 0.0532227 357.18 0.00204468 292.082L0 289.711C0.0198517 275.076 0.998646 260.746 3.25204 246.27L3.75595 243.016C11.9543 192.118 34.1422 145.322 66.252 105.27L67.8243 103.3C79.6391 88.6351 93.1979 74.6083 108.252 63.2699C109.436 62.3463 110.62 61.4217 111.803 60.4964C142.839 36.4584 178.396 19.4962 216.252 9.26987L218.569 8.64243C229.204 5.82409 239.957 4.0423 250.856 2.59458C253.029 2.30016 255.194 1.97451 257.361 1.64097C271.276 -0.350151 285.415 -0.0828727 299.46 0.182607C301.058 0.212831 302.656 0.243032 304.252 0.269874ZM306.004 22.1953C304.087 21.8843 302.17 21.575 300.252 21.2698C300.23 37.6086 300.212 53.9473 300.202 70.2861C300.197 78.2305 300.191 86.1748 300.18 94.1192C300.17 101.096 300.162 108.073 300.159 115.05L300.158 116.123C300.157 119.451 300.156 122.78 300.15 126.108C300.143 129.633 300.138 133.157 300.138 136.681L300.138 140.585L300.127 144.271L300.132 147.657C300.128 151.349 300.426 154.668 301.252 158.27C336.272 159.172 370.086 154.661 404.252 147.27C403.208 141.176 401.78 135.407 399.69 129.586L398.689 126.895C391.068 106.3 381.792 86.5592 369.36 68.3877C355.266 48.4601 334.346 27.3328 309.24 22.7159L306.004 22.1953ZM83.8965 135.93C80.0079 134.295 76.4234 132.938 72.252 132.27C42.1163 175.55 21.252 227.943 21.252 281.27H138.252C140.521 240.435 143.797 201.898 152.588 162.196L153.252 159.27C131.394 154.241 110.615 147.059 89.9332 138.445L87.8506 137.574C86.5324 137.027 85.2144 136.479 83.8965 135.93ZM138.252 299.27H21.252C21.252 347.287 36.5246 396.207 61.8149 436.819L63.252 439.082C63.3258 439.199 63.3993 439.317 63.4726 439.434C63.6085 439.651 63.7436 439.868 63.8784 440.085C65.6371 442.913 67.344 445.657 70.1697 447.565C71.2798 447.941 71.798 448.116 72.3168 448.117C72.771 448.118 73.2256 447.986 74.0784 447.737L75.9434 446.656L78.061 445.49C95.5448 437.477 104.296 433.467 113.299 430.14C122.322 426.807 131.598 424.16 150.17 418.861L152.252 418.27C151.781 413.01 151.031 407.912 149.982 402.735C146.125 383.949 143.291 365.39 141.252 346.27L138.252 299.27ZM172.252 164.27C180.55 164.861 188.629 166.129 196.814 167.582C224.5 172.315 252.207 174.917 280.252 176.27C280.557 186.453 279.63 196.411 278.564 206.52L278.298 209.093C275.764 233.386 271.624 257.222 267.252 281.27H157.252C157.252 246.5 158.895 231.883 160.319 219.213L160.32 219.208C160.555 217.113 160.785 215.071 161 213L161.123 211.811C162.813 195.504 164.429 179.916 172.252 164.27ZM277.252 560.27C259.288 558.274 245.389 550.134 232.653 537.631C231.371 536.385 230.053 535.177 228.732 533.973C215.637 521.702 206.459 506.059 198.252 490.27L197.179 488.248C175.252 446.884 175.252 446.884 175.252 430.27C209.912 422.392 241.004 420.27 277.252 420.27V560.27ZM280.252 158.27V22.2698C269.735 22.2698 259.428 26.1955 250.252 31.2698C210.593 56.1941 189.228 102.699 177.252 146.27C199.104 150.9 220.996 154.549 243.223 156.819L245.189 157.02C256.972 158.268 268.296 158.27 280.252 158.27ZM157.252 299.27H263.252C256.914 326.431 250.394 352.795 239.861 378.524C238.157 382.713 236.855 386.681 235.955 391.11C234.581 396.722 233.24 400.975 228.252 404.27C219.115 407.66 208.946 408.481 199.196 409.269C198.055 409.361 196.92 409.453 195.793 409.548C187.508 410.26 179.407 411.676 171.252 413.27C165.631 389.074 161.379 365.241 159.002 340.52L158.732 337.783C158.472 335.118 158.227 332.452 157.986 329.785L157.76 327.479C157.122 320.069 157.172 312.823 157.224 305.418L157.224 305.415C157.238 303.381 157.252 301.335 157.252 299.27ZM314.377 428.27C308.047 425.885 303.266 425.049 296.252 424.27V560.27C313.031 556.674 327.616 551.003 339.459 538.254L341.252 536.27C347.452 529.829 353.346 523.286 358.534 515.992C359.065 515.216 359.664 514.355 360.311 513.427C366.007 505.254 375.398 491.779 373.889 483.207C361.888 458.713 342.437 439.192 316.87 429.206L314.377 428.27ZM157.252 435.27L158.178 438.66C169.773 479.794 188.779 516.5 216.951 548.574L216.952 548.576C218.358 550.223 218.905 550.863 219.346 551.569C219.626 552.018 219.864 552.493 220.252 553.27C214.361 552.64 209.044 551.099 203.439 549.207L200.641 548.263C191.576 545.137 182.876 541.45 174.252 537.27L171.785 536.084C142.797 521.984 118.13 502.131 95.377 479.52L93.5017 477.659C90.5202 474.667 87.5878 471.628 84.7441 468.504L83.2163 466.839L82.252 465.27C82.7148 463.881 82.9634 463.135 83.4177 462.549C83.9449 461.868 84.7491 461.402 86.4863 460.395C87.9846 459.672 89.4906 458.965 91.002 458.27L93.5144 457.1C109.819 449.685 126.772 443.564 143.814 438.082L146.552 437.199C150.396 436 153.163 435.27 157.252 435.27ZM220.252 32.2698V30.2698C215.42 30.2698 211.971 30.2698 208.593 30.7597C200.172 31.9812 192.192 36.2482 164.317 51.1538L162.252 52.2698C149.504 59.1212 137.741 66.863 126.279 75.6995L124.252 77.2698C116.577 83.1511 109.61 89.5901 102.907 96.5442L101.252 98.2698C99.3364 100.262 97.425 102.258 95.5227 104.263L93.627 106.27L91.7957 108.194L90.0879 110.02C87.9518 112.29 86.5514 114.432 85.252 117.27C102.833 124.479 120.572 131.346 138.729 136.982L141.314 137.77C146.973 139.511 152.354 140.681 158.252 141.27C166.133 118.228 174.344 95.0555 187.082 74.1721L188.252 72.2698C196.33 58.9448 205.12 45.1088 217.064 34.8948C218.154 34.0543 219.229 33.1907 220.252 32.2698ZM363.252 32.2698C402.201 36.8398 441.713 62.3302 469.666 88.8362C471.77 90.8158 473.905 92.6778 476.127 94.5198C480.209 98.0657 483.909 101.971 487.625 105.892L487.627 105.895L489.505 107.853L491.275 109.746L492.867 111.436C494.493 113.589 495.348 115.739 496.252 118.27C472.454 127.974 448.467 136.958 423.252 142.27L422.509 139.913C410.462 102.016 394.561 68.4023 368.252 38.2698C366.575 36.2781 364.913 34.2751 363.252 32.2698ZM373.252 393.27C367.288 387.316 361.014 382.347 353.744 378.063C340.177 371.097 326.787 367.359 313.035 375.139C306.816 378.68 300.551 382.128 294.22 385.467L292.057 386.606C289.143 388.141 286.23 389.676 283.314 391.207C281.177 392.322 279.04 393.437 276.906 394.56L274.912 395.61L274.405 395.872C270.996 397.632 267.799 399.282 265.252 402.27C270.025 402.656 274.791 403.083 279.553 403.586C322.308 408.462 353.88 426.959 380.576 460.16L382.252 462.27C384.413 456.007 386.348 449.71 388.102 443.32L389.064 439.77C390.353 435.291 391.572 430.885 392.252 426.27C391.704 414.691 383.33 403.643 375.588 395.57L373.252 393.27ZM525.252 160.27C529.371 163.68 531.354 167.975 533.52 172.666L533.524 172.675C533.682 173.017 533.841 173.361 534.002 173.707L535.323 176.535C550.407 209.292 559.75 245.084 560.252 281.27C547.726 278.822 539.358 273.117 530.252 264.27L528.166 262.406C511.783 247.286 502.452 223.217 501.252 201.27L500.814 198.078C500.254 191.704 500.518 187.4 504.632 182.262C506.576 180.067 508.587 177.954 510.66 175.88C512.709 173.807 514.652 171.648 516.6 169.483L516.862 169.192C519.598 166.159 522.363 163.158 525.252 160.27ZM415.502 191.895C413.938 182.506 411.998 173.385 409.252 164.27C408.571 164.27 408.1 164.27 407.631 164.298C406.579 164.362 405.535 164.567 402.151 165.235C373.794 170.871 345.302 175.22 316.361 176.192L313.252 176.27C313.252 176.972 313.252 177.516 313.354 178.039C313.705 179.832 315.257 181.39 322.125 188.282L324.002 190.145C328.876 194.993 333.794 199.794 338.776 204.532L340.877 206.52L342.884 208.433L344.791 210.223C348.346 213.574 351.443 216.066 356.415 216.626L359.951 216.598L363.867 216.582C365.897 216.551 367.925 216.52 369.955 216.51C380.077 216.48 389.948 216.208 399.832 213.906L401.939 213.395C407.34 212.164 412.212 210.582 417.252 208.27C417.348 203.738 416.753 199.519 416.032 195.055L415.502 191.895ZM282.252 299.27H323.252C329.449 311.663 330.931 322.751 327.299 336.133C322.812 349.578 316.592 354.709 304.564 361.395L301.462 363.132C299.378 364.298 297.293 365.462 295.207 366.624C292.58 368.087 289.956 369.556 287.334 371.028C277.387 376.597 267.349 381.978 257.252 387.27C256.769 386.304 256.519 385.804 256.465 385.284C256.406 384.728 256.572 384.148 256.914 382.948L258.025 380.004L259.262 376.664L260.627 373.02C269.485 348.878 276.201 324.248 282.252 299.27ZM559.315 318.707C560.117 312.199 560.507 305.837 560.252 299.27C539.657 299.27 520.219 334.86 512.306 351.096L511.252 353.27C509.505 356.764 507.827 360.269 506.3 363.865C502.716 373.267 502.477 384.755 506.443 394.067L507.815 397.02C508.624 398.771 509.435 400.522 510.252 402.27H512.252C513.476 395.455 514.778 388.787 517.502 382.395C521.919 373.415 527.705 367.743 537.065 364.207C541.288 364.29 544.108 365.615 547.787 367.629C553.989 374.442 557.129 377.891 559.22 381.888C561.364 385.985 562.406 390.658 564.518 400.121L565.252 403.27H566.252L566.253 403.268C568.626 400.083 568.628 400.082 569.975 397.875C575.037 387.55 575.881 375.652 572.217 364.828L571.252 362.27C569.331 357.155 567.331 352.615 563.893 348.328C562.229 346.347 560.604 344.332 559.022 342.285C556.54 338.056 556.761 335.335 557.58 330.606C558.23 327.379 558.672 324.192 559.058 320.927L559.315 318.707ZM298.252 190.27C301.86 191.54 304.333 192.941 307.124 195.548L309.307 197.575C312.556 200.676 315.796 203.785 319.01 206.923C320.705 208.563 322.417 210.187 324.146 211.792L324.146 211.792C335.278 222.135 338.616 225.237 339.788 229.012C340.291 230.629 340.395 232.369 340.545 234.855C340.423 238.073 339.921 241.124 339.252 244.27L338.872 246.871L338.872 246.873L338.872 246.875L338.871 246.877C338.743 247.651 338.661 248.146 338.561 248.636C338.384 249.5 338.15 250.352 337.504 252.7L337.503 252.705L337.502 252.706L337.502 252.707L336.948 254.72C334.336 263.905 330.126 274.396 323.252 281.27C320.513 281.358 317.799 281.385 315.061 281.367L312.576 281.363C309.947 281.358 307.318 281.345 304.689 281.332C302.911 281.327 301.133 281.323 299.355 281.319C294.988 281.308 290.62 281.29 286.252 281.27C286.862 276.151 287.591 271.09 288.486 266.012C292.826 240.869 295.712 215.652 298.252 190.27ZM504.346 133.824C480.834 144.813 456.272 152.368 431.163 158.786L429.252 159.27C428.267 162.52 428.256 164.287 429.095 167.629C429.707 169.457 430.008 170.356 430.252 171.27C430.488 172.154 430.671 173.052 431.03 174.818L431.76 178.516C432.164 180.549 432.567 182.582 432.966 184.615C433.243 186.023 433.52 187.43 433.798 188.837C434.445 192.1 435.091 195.363 435.733 198.627L436.252 201.27C456.596 195.579 482.573 184.418 496.248 167.836C497.637 166.057 499.048 164.295 500.475 162.547L502.752 159.77C506.557 155.065 510.528 150.546 514.6 146.071C518.772 141.524 509.891 132.212 504.346 133.824ZM469.252 207.27C467.496 213.185 464.908 218.656 462.252 224.207L460.943 227.127C457.405 234.46 453.268 238.242 446.252 242.27L444.24 243.458C442.435 244.477 440.613 245.419 438.752 246.332L436.717 247.333C426.195 252.349 415.134 256.124 403.627 258.082L399.9 258.727C394.921 258.103 392.422 255.541 389.155 252.192L389.148 252.185C388.856 251.886 388.558 251.581 388.252 251.27L386.121 249.224C383.973 247.159 381.86 245.063 379.752 242.957L377.549 240.791L375.471 238.719L373.594 236.854C372.912 236.049 372.576 235.653 372.411 235.195C372.252 234.753 372.252 234.253 372.252 233.27L375.021 232.938C406.148 229.106 437.323 222.639 465.473 208.125C466.357 207.7 466.802 207.486 467.271 207.379C467.746 207.27 468.246 207.27 469.252 207.27ZM407.252 360.27C403.509 351.934 394.705 345.896 386.611 342.176C382.882 340.743 379.224 339.407 375.409 341.076L373.252 342.27L370.595 343.69L361.002 348.895C357.085 351.019 353.168 353.144 349.252 355.27V357.27C366.104 365.112 380.583 374.264 392.127 389.145C394.31 392.118 396.625 394.68 399.252 397.27C400.07 394.1 400.884 390.929 401.691 387.756C402.024 386.448 402.356 385.14 402.689 383.832C402.847 383.221 403.006 382.611 403.164 382.002C405.031 374.818 406.875 367.724 407.252 360.27ZM484.252 216.27C485.817 219.267 486.868 222.19 487.797 225.445C493.511 245.271 503.578 262.804 517.924 277.703C518.596 278.496 518.928 278.887 519.092 279.34C519.252 279.782 519.252 280.282 519.252 281.27C515.607 281.475 511.964 281.598 508.314 281.707L505.219 281.885C498.2 282.042 494.41 280.782 489.108 276.146C480.285 267.227 474.465 255.723 472.869 243.285C472.914 238.43 475.221 234.059 477.468 229.801C477.904 228.975 478.337 228.153 478.752 227.332L480.342 224.104C481.633 221.486 482.937 218.875 484.252 216.27ZM466.939 275.457C464.882 272.225 462.719 269.211 460.252 266.27C460.065 266.457 459.909 266.612 459.763 266.777C459.025 267.604 458.525 268.645 455.506 274.928L455.505 274.929L454.002 278.082C450.19 286.059 446.46 294.028 443.252 302.27C447.39 305.778 451.441 309.353 455.439 313.02C458.256 315.628 460.715 317.741 464.252 319.27C466.651 310.558 470.604 303.095 476.627 296.332C477.457 295.466 477.835 295.072 478.185 294.654C478.477 294.306 478.75 293.941 479.251 293.271L479.252 293.27C479.252 291.72 479.252 290.971 479.01 290.311C478.783 289.693 478.344 289.152 477.494 288.106C473.627 284.085 469.99 280.14 466.939 275.457ZM343.252 299.27H377.252C378.428 301.623 378.455 303.316 378.495 305.851L378.495 305.867C378.497 305.999 378.5 306.133 378.502 306.27L378.58 308.957L378.252 312.27L378.043 314.607C377.234 319.123 376.202 321.538 372.506 324.384C368.963 326.4 365.382 328.176 361.689 329.895C360.418 330.521 359.148 331.15 357.879 331.781C350.647 335.339 349.147 336.077 347.59 336.23C347.182 336.27 346.771 336.27 346.252 336.27L346.3 334.596C346.363 331.999 346.401 329.401 346.439 326.803L346.439 326.77L346.516 324.141C346.597 316.586 345.432 310.572 344.02 303.278C343.77 301.987 343.512 300.656 343.252 299.27ZM365.779 255.246C362.829 252.451 360.079 249.846 356.252 248.27L355.854 249.875L355.252 252.27C353.305 260.108 350.977 267.365 347.502 274.645L344.252 281.27H377.252L382.252 271.27C380.99 269.377 380.524 268.678 379.97 268.059C379.646 267.698 379.291 267.363 378.729 266.833C376.04 264.563 373.358 262.288 370.769 259.904L369.197 258.438C368.131 257.445 367.066 256.452 366.002 255.457L365.779 255.246ZM439.252 264.27L441.252 265.27L430.252 289.27C426.247 287.267 423.323 284.882 420.064 281.895L418.41 280.434C415.533 277.81 413.959 276.091 413.252 272.27L415.316 271.643C418.399 270.707 421.482 269.769 424.564 268.832L433.8 266.026C435.625 265.463 437.441 264.874 439.252 264.27ZM403.705 290.09C401.204 287.913 399.335 286.812 396.252 285.27V311.27C396.448 311.27 396.612 311.27 396.774 311.255C397.58 311.184 398.355 310.758 402.976 308.219L402.977 308.218L402.978 308.217L405.252 306.957L407.525 305.733L409.689 304.531L409.807 304.467C412.708 302.876 413.126 302.647 414.252 299.27C412.66 297.878 411.068 296.487 409.471 295.102L407.502 293.395L405.58 291.711L403.705 290.09ZM435.252 319.27C438.878 320.826 441.421 323.049 444.314 325.707L446.912 328.078C448.728 329.779 450.51 331.494 452.252 333.27L448.998 334.258L444.689 335.582L442.555 336.229C437.974 337.643 433.628 339.309 429.252 341.27C430.531 333.661 432.68 326.538 435.252 319.27ZM413.252 340.27L418.252 322.27L416.252 321.27L414.556 321.982L412.557 323.141L410.389 324.381L408.127 325.707C405.497 327.22 402.872 328.739 400.252 330.27C401.594 331.686 402.474 332.614 403.423 333.463C405.228 335.078 407.285 336.409 413.252 340.27Z" fill="#396CCA"/>
</svg>
